# xmcd
#
# Track frame offsets: 
#        150
#        10132
#        20551
#        31234
#        42345
#        53441
#        65107
#        76621
#        86951
#        97701
#        109806
#        122255
#        132611
#        143543
#        153874
#        164202
#
# Disc length: 2330 seconds
#
# Revision: 0
# Processed by: cddbd v1.5.2PL0 Copyright (c) Steve Scherf et al.
# Submitted via: ExactAudioCopy v0.99pb4
#
DISCID=c5091810
DTITLE=Robert Johnson - The Complete Recordings [CD3]
DYEAR=2008
DGENRE=Blues
TTITLE0=Little Queen Of Spades (take 1)
TTITLE1=Little Queen Of Spades (take 2)
TTITLE2=Malted Milk
TTITLE3=Drunken Hearted Man (take 1)
TTITLE4=Drunken Hearted Man (take 2)
TTITLE5=Me And The Devil Blues (take 1)
TTITLE6=Me And The Devil Blues (take 2)
TTITLE7=Stop Breakin' Down Blues (take 1)
TTITLE8=Stop Breakin' Down Blues (take 2)
TTITLE9=Traveling Riverside Blues (alternate take)
TTITLE10=Traveling Riverside Blues
TTITLE11=Honeymoon Blues
TTITLE12=Love In Vain (take 1)
TTITLE13=Love In Vain (take 2)
TTITLE14=Milkcow's Calf Blues (take 1)
TTITLE15=Milkcow's Calf Blues (take 2)
EXTD=
EXTT0=
EXTT1=
EXTT2=
EXTT3=
EXTT4=
EXTT5=
EXTT6=
EXTT7=
EXTT8=
EXTT9=
EXTT10=
EXTT11=
EXTT12=
EXTT13=
EXTT14=
EXTT15=
PLAYORDER=
